<?xml version="1.0" encoding="UTF-8" standalone="no"?>
<!-- Created with Inkscape (http://www.inkscape.org/) -->

<svg
   xmlns:dc="http://purl.org/dc/elements/1.1/"
   xmlns:cc="http://creativecommons.org/ns#"
   xmlns:rdf="http://www.w3.org/1999/02/22-rdf-syntax-ns#"
   xmlns:svg="http://www.w3.org/2000/svg"
   xmlns="http://www.w3.org/2000/svg"
   xmlns:sodipodi="http://sodipodi.sourceforge.net/DTD/sodipodi-0.dtd"
   xmlns:inkscape="http://www.inkscape.org/namespaces/inkscape"
   width="1000"
   height="823.04199"
   viewBox="0 0 264.58332 217.7632"
   version="1.1"
   id="svg1844"
   inkscape:version="0.92.3 (2405546, 2018-03-11)"
   sodipodi:docname="Disney.svg">
  <defs
     id="defs1838">
    <clipPath
       id="clipPath18"
       clipPathUnits="userSpaceOnUse">
      <path
         inkscape:connector-curvature="0"
         id="path16"
         d="M 0,841.89 H 595.276 V 0 H 0 Z" />
    </clipPath>
    <clipPath
       id="clipPath3744"
       clipPathUnits="userSpaceOnUse">
      <path
         inkscape:connector-curvature="0"
         id="path3746"
         d="M 458.683,491.144 H 134.6 V 332.515 h 324.083 z" />
    </clipPath>
    <clipPath
       id="clipPath3704"
       clipPathUnits="userSpaceOnUse">
      <path
         inkscape:connector-curvature="0"
         id="path3706"
         d="M 458.683,491.144 H 134.6 V 332.515 h 324.083 z" />
    </clipPath>
    <clipPath
       id="clipPath3592"
       clipPathUnits="userSpaceOnUse">
      <path
         inkscape:connector-curvature="0"
         id="path3594"
         d="M 458.683,491.144 H 134.6 V 332.515 h 324.083 z" />
    </clipPath>
    <clipPath
       id="clipPath3552"
       clipPathUnits="userSpaceOnUse">
      <path
         inkscape:connector-curvature="0"
         id="path3554"
         d="M 458.683,491.144 H 134.6 V 332.515 h 324.083 z" />
    </clipPath>
    <clipPath
       id="clipPath3440"
       clipPathUnits="userSpaceOnUse">
      <path
         inkscape:connector-curvature="0"
         id="path3442"
         d="M 458.683,491.144 H 134.6 V 332.515 h 324.083 z" />
    </clipPath>
    <clipPath
       id="clipPath3396"
       clipPathUnits="userSpaceOnUse">
      <path
         inkscape:connector-curvature="0"
         id="path3398"
         d="M 458.683,491.144 H 134.6 V 332.515 h 324.083 z" />
    </clipPath>
  </defs>
  <sodipodi:namedview
     id="base"
     pagecolor="#ffffff"
     bordercolor="#666666"
     borderopacity="1.0"
     inkscape:pageopacity="0.0"
     inkscape:pageshadow="2"
     inkscape:zoom="0.7"
     inkscape:cx="101.87271"
     inkscape:cy="281.00703"
     inkscape:document-units="px"
     inkscape:current-layer="layer1"
     showgrid="false"
     inkscape:window-width="1920"
     inkscape:window-height="1018"
     inkscape:window-x="-8"
     inkscape:window-y="-8"
     inkscape:window-maximized="1"
     units="px" />
  <metadata
     id="metadata1841">
    <rdf:RDF>
      <cc:Work
         rdf:about="">
        <dc:format>image/svg+xml</dc:format>
        <dc:type
           rdf:resource="http://purl.org/dc/dcmitype/StillImage" />
        <dc:title></dc:title>
      </cc:Work>
    </rdf:RDF>
  </metadata>
  <g
     inkscape:label="Layer 1"
     inkscape:groupmode="layer"
     id="layer1"
     transform="translate(0,-79.236804)">
    <path
       style="fill-opacity:1;fill-rule:nonzero;stroke:none;stroke-width:6.00759125"
       d="m 58.897361,79.247349 c -1.451196,0.01747 -2.906651,0.05266 -4.367259,0.107075 -10.325198,0.39685 -24.126098,2.506546 -35.051581,5.512599 -7.707853,2.09824 -12.9542488,5.465003 -16.6280902,11.928071 -1.8309323,3.234526 -3.50624248,6.727386 -2.59378583,10.292596 0.79838543,3.03017 5.11512263,4.08199 8.58490283,4.64714 3.3316472,0.51703 10.9183742,0.95032 12.9353952,-1.52068 0.87047,-1.06416 0.769388,-2.06856 0.04901,-3.34315 -0.744368,-1.35274 -2.671334,-2.33154 -4.496239,-2.68021 -2.053037,-0.37274 -6.021151,-0.60793 -6.963626,-1.0228 -0.5222637,-0.23437 -1.074403,-0.53528 -1.074403,-0.53528 5e-7,0 0.2338422,-0.23387 0.45014,-0.43207 0.408196,-0.31862 1.861126,-0.93888 2.797574,-1.16726 1.182586,-0.25251 2.454494,-0.68513 3.739128,-1.039598 8.878508,-2.464964 26.480028,-2.873296 34.542111,-2.584743 31.305765,1.16639 60.443552,8.164181 89.936402,20.302731 28.87456,11.89208 61.70571,32.17048 80.86137,56.85048 7.23963,9.33691 16.32148,24.65688 17.42003,37.59504 1.00248,11.8199 -2.77258,23.1339 -9.9882,31.42468 -5.46275,6.24662 -12.68425,10.85875 -20.55424,14.56827 -17.93103,8.4952 -39.74064,10.23829 -59.28046,9.72121 -2.5633,-0.0661 -12.21662,-0.93766 -14.50379,-1.27431 -3.96802,-0.64931 -9.01053,-1.6174 -9.01053,-1.6174 l -1.28465,-60.55479 c 0,0 6.08766,0.2169 10.37386,0.46949 10.96149,0.64931 33.61668,4.40598 44.9624,8.9151 2.42519,0.94994 4.95306,2.43574 5.18112,4.8406 0.16209,1.83971 -1.29759,3.41491 -2.93042,4.86384 -0.75637,0.6974 -1.57275,1.26807 -2.55122,1.80314 -1.96298,1.04612 -5.26931,2.78332 -5.50358,3.0839 -0.62408,0.82366 -0.67227,2.03867 0.19218,2.72407 2.17908,1.68938 9.26836,2.63858 11.15935,2.51251 6.33316,-0.35472 12.58176,-4.64649 15.87742,-10.4422 2.93547,-5.12836 3.23049,-9.04931 1.29754,-14.73078 -2.07102,-6.19856 -8.47077,-12.06018 -15.32024,-15.5292 -8.3082,-4.22656 -22.79898,-7.39492 -30.23676,-8.57329 -5.81091,-0.92589 -11.97693,-1.81553 -17.56577,-1.95405 -5.76293,-0.15001 -15.12161,0.1213 -15.12161,0.1213 0,0 -0.17945,-8.2193 -0.54558,-13.67833 -0.60631,-8.97017 -3.07995,-26.59763 -11.23802,-31.66586 -1.48875,-0.9317 -3.32009,-1.02851 -4.34662,0.3663 -1.58483,2.06218 -3.13247,9.94459 -3.49278,12.00674 -0.6663,3.78166 -2.74417,21.67993 -2.68407,24.40946 0.0539,2.76563 -0.22223,10.35335 -0.38436,10.58797 -0.09,0.11381 -0.18542,0.19793 -0.31729,0.29407 -0.31814,0.21639 -5.529728,1.14155 -8.885426,1.62257 -7.119559,1.03408 -24.233734,6.63234 -29.750507,9.06728 -7.503787,3.28869 -18.458738,9.06618 -21.520298,16.71967 -2.209091,5.48912 -1.375316,10.10034 1.53615,15.28283 3.745862,6.63743 8.66228,11.8192 14.131039,16.99568 1.956956,1.85174 10.793379,9.27064 12.846397,10.79175 7.413732,5.50711 15.907773,10.83504 24.840246,15.24799 2.911463,1.45494 6.393539,3.10197 6.393539,3.10197 0,0 0.69008,7.01601 1.35041,11.05617 0.80442,5.01412 2.48587,9.39155 7.1442,11.36956 2.84542,1.20246 6.10471,1.02772 9.17821,0.43853 2.53929,-0.48096 4.28715,-1.61777 5.3617,-3.82423 0.40218,-0.82371 1.13451,-3.37218 1.24852,-4.32213 0.24353,-2.1223 0.227,-5.12823 0.227,-5.12823 0,0 7.50461,1.71869 12.54717,2.65054 14.67737,2.71151 30.58501,2.96976 44.42197,1.29236 20.41025,-2.49504 44.19433,-10.06969 59.55002,-23.36857 4.14208,-3.57727 11.0932,-11.94007 14.0227,-17.21881 1.71684,-3.07219 3.32049,-6.18033 4.95929,-9.9379 0.32416,-0.76358 2.35259,-6.96283 2.73694,-9.65028 0.19817,-1.16639 1.41131,-10.0159 0.89511,-14.69339 h -0.001 c 0.0841,-1.97801 -1.00827,-7.06396 -1.12858,-7.98388 -0.0841,-0.0901 -0.65967,-2.58542 -1.0499,-4.28084 -0.39618,-1.71943 -2.79128,-7.65951 -3.34962,-8.64552 -1.60879,-2.89184 -2.59325,-5.35084 -3.83584,-7.8639 -5.23468,-10.42508 -15.987,-23.56759 -24.63131,-32.14694 -4.45429,-4.44295 -10.63023,-9.99269 -15.34861,-13.85245 -2.2571,-1.88184 -16.81532,-12.58901 -19.30055,-14.23035 -7.88795,-5.17647 -21.93484,-13.10025 -30.83132,-17.39295 C 152.57122,99.95215 135.59507,93.368779 122.64052,89.454887 101.42358,82.989896 80.665312,79.0022 58.897361,79.247424 Z M 100.80809,205.41161 c 0,0 -0.20626,8.95087 -0.24118,18.01723 -0.0901,17.15272 0.3663,34.57048 0.3663,34.57048 0,0 -6.110572,-2.18795 -9.784417,-3.72109 -10.763412,-4.50909 -25.35045,-13.79868 -32.548078,-19.80485 -1.710872,-1.43689 -7.834536,-7.33439 -8.915092,-8.60296 -1.878964,-2.20646 -3.547901,-4.31668 -3.091648,-7.04617 0.450203,-2.6093 5.619594,-4.78014 8.170877,-5.66996 8.46427,-3.04814 23.152592,-5.59142 30.974523,-6.42708 6.135068,-0.68535 15.068725,-1.3156 15.068725,-1.3156 z"
       id="path2671"
       inkscape:connector-curvature="0" />
  </g>
</svg>
